<svg width="26" height="20" viewBox="0 0 26 20" fill="none" xmlns="http://www.w3.org/2000/svg">
<path d="M21.5316 1.61644C19.9105 0.86827 18.1721 0.317038 16.3544 0.00132353C16.3214 -0.00476743 16.2883 0.01046 16.2712 0.0409148C16.0477 0.440888 15.8 0.96268 15.6266 1.3728C13.6716 1.07841 11.7267 1.07841 9.8118 1.3728C9.63836 0.953543 9.38171 0.440888 9.15714 0.0409148C9.14009 0.0114751 9.10701 -0.00375227 9.07392 0.00132353C7.2573 0.316023 5.51888 0.867255 3.89675 1.61644C3.88272 1.62253 3.87069 1.63269 3.86267 1.64588C0.56528 6.60088 -0.338018 11.4341 0.105109 16.2073C0.107114 16.2307 0.120148 16.253 0.138194 16.2672C2.31373 17.8742 4.42109 18.8498 6.48935 19.4965C6.52243 19.5066 6.55752 19.4944 6.57858 19.467C7.06782 18.795 7.50393 18.0864 7.87788 17.3413C7.89994 17.2976 7.87888 17.2458 7.83377 17.2286C7.14201 16.9646 6.48333 16.6428 5.84972 16.2774C5.79959 16.2479 5.79558 16.1759 5.8417 16.1413C5.97504 16.0408 6.10838 15.9363 6.2357 15.8307C6.25876 15.8114 6.29084 15.8074 6.31791 15.8195C10.4805 17.7311 14.987 17.7311 19.1004 15.8195C19.1275 15.8063 19.1596 15.8104 19.1836 15.8297C19.311 15.9353 19.4443 16.0408 19.5786 16.1413C19.6248 16.1759 19.6218 16.2479 19.5716 16.2774C18.938 16.6499 18.2793 16.9646 17.5866 17.2276C17.5415 17.2448 17.5214 17.2976 17.5435 17.3413C17.9254 18.0854 18.3615 18.794 18.8418 19.466C18.8618 19.4944 18.8979 19.5066 18.931 19.4965C21.0093 18.8498 23.1166 17.8742 25.2922 16.2672C25.3112 16.253 25.3233 16.2317 25.3253 16.2083C25.8556 10.6899 24.437 5.89636 21.5647 1.6469C21.5577 1.63269 21.5456 1.62253 21.5316 1.61644ZM8.49946 13.3009C7.24627 13.3009 6.21365 12.1436 6.21365 10.7224C6.21365 9.3012 7.22622 8.14392 8.49946 8.14392C9.78273 8.14392 10.8053 9.31135 10.7853 10.7224C10.7853 12.1436 9.7727 13.3009 8.49946 13.3009ZM16.951 13.3009C15.6978 13.3009 14.6651 12.1436 14.6651 10.7224C14.6651 9.3012 15.6777 8.14392 16.951 8.14392C18.2342 8.14392 19.2568 9.31135 19.2368 10.7224C19.2368 12.1436 18.2342 13.3009 16.951 13.3009Z" fill="#FFF7DA"/>
</svg>
