<svg width="212" height="20" viewBox="0 0 212 20" fill="none" xmlns="http://www.w3.org/2000/svg">
<path fill-rule="evenodd" clip-rule="evenodd" d="M0.109169 0.184871C0.109169 0.289212 0.170501 0.435718 0.245479 0.510329C0.320458 0.58494 0.502805 0.999875 0.650663 1.43225C0.890294 2.13276 0.925384 2.95763 0.97397 9.0077C1.0326 16.3039 0.944278 17.664 0.338003 18.8055L0 19.4418H3.1236H6.24735L5.94084 18.9468C5.39575 18.0662 5.2185 16.5077 5.21295 12.5453C5.2101 10.5211 5.26183 8.86477 5.32797 8.86477C5.39395 8.86477 5.58514 9.17407 5.75264 9.55199C6.05286 10.2292 11.5725 17.2978 11.801 17.2978C11.9597 17.2978 17.1892 9.69521 17.5962 8.87291C17.8476 8.36522 17.942 8.27517 18.0245 8.4647C18.0828 8.59848 18.1047 10.6567 18.0734 13.0386C18.0139 17.5472 18.0053 17.614 17.2861 19.1917C17.1795 19.4258 17.3938 19.4418 20.6407 19.4418H24.1092L23.8925 19.1202C23.7734 18.9433 23.5666 18.4354 23.433 17.9915C23.2201 17.2837 23.1956 16.2368 23.2339 9.48695C23.2737 2.43878 23.3004 1.73527 23.5498 1.14638C24.084 -0.11486 24.3038 0.00291686 21.415 0.00291686H18.8427L17.986 1.26873C17.5148 1.96482 16.0158 4.24431 14.655 6.33428C13.2941 8.42425 12.1315 10.138 12.0712 10.1427C12.0111 10.1473 11.8256 9.91004 11.6591 9.61517C11.4927 9.32044 9.82037 7.05309 7.94276 4.57678L4.52885 0.0743834L2.31908 0.0347909C0.562038 0.0033456 0.109169 0.0340764 0.109169 0.184871ZM160.234 0.0783855C160.19 0.119836 160.279 0.393124 160.431 0.685851C160.952 1.68996 161.013 2.6386 161.013 9.71565C161.013 16.895 160.947 17.8718 160.396 18.9012L160.107 19.4418H163.562H167.017L166.733 18.9058C166.162 17.8307 166.111 17.077 166.111 9.67391C166.111 2.20209 166.172 1.37865 166.786 0.483887C166.901 0.315941 166.954 0.139132 166.903 0.0908207C166.791 -0.0160933 160.346 -0.0280996 160.234 0.0783855ZM34.5243 3.5711C32.4875 3.87769 30.8091 4.64667 29.5046 5.87089C27.9254 7.35296 27.1218 9.09074 26.9966 11.2946C26.7293 16.0014 30.2415 19.7155 35.1991 19.9691C40.1725 20.2234 44.0883 17.0756 44.5672 12.4381C44.9632 8.60191 42.1274 4.76044 38.1982 3.8108C37.083 3.54122 35.436 3.43388 34.5243 3.5711ZM197.481 3.57882C193.483 4.10653 190.6 6.33814 189.709 9.59558C189.38 10.7969 189.379 12.8203 189.707 14.0104C190.123 15.5227 190.667 16.4268 191.817 17.5175C193.52 19.1309 195.318 19.8126 198.277 19.966C199.693 20.0394 200.097 20.0071 201.126 19.7383C202.337 19.4221 203.392 18.9258 203.916 18.4267C204.165 18.1891 204.2 17.9329 204.2 16.3688C204.2 15.3812 204.139 14.5821 204.063 14.5821C203.987 14.5821 203.903 14.6361 203.875 14.7023C203.782 14.928 202.327 15.9074 201.651 16.2002C201.122 16.4294 200.652 16.4947 199.477 16.5021C198.088 16.511 197.918 16.4805 197.182 16.0917C196.189 15.5676 195.434 14.7815 194.925 13.7416C194.587 13.0518 194.533 12.7565 194.544 11.652C194.566 9.51854 195.348 8.09393 196.893 7.37426C198.476 6.63701 200.271 6.76308 201.856 7.72288C202.257 7.96586 202.604 8.14539 202.626 8.12166C202.713 8.02832 204.35 4.5086 204.35 4.4144C204.35 4.27176 203.087 3.90127 202.026 3.7329C200.636 3.51235 198.527 3.44089 197.481 3.57882ZM47.2713 3.69445C47.2445 3.72003 47.3469 4.00947 47.4987 4.33765C48.0369 5.50012 48.1175 6.60257 48.0657 12.0876C48.0129 17.6666 48.0259 17.5501 47.2775 19.1917C47.1709 19.4257 47.3781 19.4418 50.4816 19.4418H53.7999L53.5154 18.9058C53.055 18.0385 52.894 16.9828 52.894 14.8318V12.8086L53.5743 13.8603C54.808 15.7676 56.8569 17.936 58.4274 18.9963L59.0872 19.4418H61.3929H63.6985L62.6794 18.6058C61.7069 17.8079 60.6071 16.6649 59.7708 15.5826C59.3016 14.9754 58.4424 13.3774 58.4424 13.1119C58.4424 13.0063 58.6755 12.8139 58.9606 12.6842C59.7527 12.3243 60.6364 11.493 61.0176 10.7495C61.4722 9.86273 61.5016 8.02289 61.0797 6.86513C60.689 5.79342 59.4412 4.60479 58.2164 4.13754C57.3474 3.80622 57.1523 3.79236 52.3189 3.72132C49.5694 3.68087 47.298 3.66872 47.2713 3.69445ZM64.505 3.79064C64.2661 4.50945 63.3938 7.91455 63.4377 7.95643C63.4689 7.9863 63.7918 7.88625 64.155 7.73417C65.1004 7.33853 66.2395 7.17516 67.8818 7.19974L69.3142 7.22104L69.3088 12.2237C69.3031 17.5106 69.3127 17.4225 68.5714 19.0487C68.4647 19.2826 68.669 19.2989 71.7135 19.2989C74.7571 19.2989 74.9625 19.2826 74.8584 19.0487C74.2528 17.6863 74.264 17.8048 74.2183 12.3812L74.1739 7.10712L75.7499 7.19674C76.7716 7.25477 77.6313 7.39227 78.1938 7.58752C78.6709 7.75318 79.1543 7.89925 79.2679 7.91226C79.4125 7.9287 79.6466 7.31509 80.0492 5.86317C80.3655 4.72328 80.6268 3.75848 80.6301 3.71918C80.6421 3.5741 64.5533 3.64542 64.505 3.79064ZM81.746 3.86211C81.7876 3.98003 81.9704 4.46243 82.1522 4.93411C82.4572 5.72581 82.4905 6.14304 82.5844 10.3656C82.6686 14.1537 82.7298 15.0491 82.9405 15.5779C83.9928 18.2186 86.035 19.4841 89.5647 19.6827C93.5555 19.9072 96.022 18.5722 97.2459 15.525C97.4338 15.0575 97.5006 14.0025 97.5775 10.2941C97.6666 5.99481 97.6982 5.58488 98.0032 4.79117C98.1845 4.3195 98.3492 3.88512 98.3693 3.8258C98.3894 3.76649 97.1735 3.70217 95.6673 3.68287C93.28 3.65214 92.9417 3.67515 93.0287 3.86211C93.6989 5.30288 93.7383 5.57788 93.8005 9.23911C93.8673 13.1663 93.7663 14.0378 93.1377 14.9619C92.5706 15.7954 91.8622 16.1987 90.8404 16.2691C89.2933 16.3758 88.1571 15.6338 87.612 14.1613C87.4286 13.666 87.3849 12.7733 87.389 9.59716C87.3933 6.00153 87.4208 5.57859 87.6959 4.86264C87.8621 4.43027 88.0322 3.98003 88.0737 3.86211C88.1392 3.67587 87.7229 3.64771 84.9097 3.64771C82.0966 3.64771 81.6803 3.67587 81.746 3.86211ZM104.552 3.93358C104.86 4.92553 104.819 5.08519 102.751 11.0241C100.733 16.8167 100.113 18.3291 99.4881 18.9773L99.1783 19.2989H101.92C104.472 19.2989 104.654 19.2816 104.554 19.0487C104.316 18.4966 104.312 17.6403 104.544 17.1192L104.783 16.5832H107.844H110.904L111.08 17.0916C111.259 17.6071 111.224 18.5926 111.012 19.0487C110.903 19.2826 111.102 19.2989 114.068 19.2989H117.241L116.875 18.8343C116.289 18.0892 115.967 17.3869 114.928 14.5821C114.389 13.1277 113.397 10.4585 112.724 8.65037C111.606 5.64477 111.507 5.29287 111.574 4.5459L111.648 3.7289L108.056 3.6883C104.524 3.64842 104.465 3.65257 104.552 3.93358ZM134.62 3.73276C134.62 3.77949 134.763 3.94029 134.938 4.09009C135.543 4.60851 136.582 6.13332 138.82 9.7864L141.069 13.4556V15.0838C141.069 16.8496 140.892 17.9103 140.451 18.7898C140.296 19.0993 140.169 19.3726 140.169 19.3972C140.169 19.4218 141.653 19.4418 143.468 19.4418C145.282 19.4418 146.767 19.3904 146.767 19.3275C146.767 19.2646 146.706 19.1521 146.631 19.0773C146.237 18.6851 145.982 17.2675 145.913 15.0824L145.84 12.7954L147.931 9.34131C150.045 5.84988 150.77 4.78889 151.477 4.15884C151.691 3.96817 151.865 3.77521 151.865 3.73004C151.866 3.68473 150.589 3.64771 149.028 3.64771H146.19L146.274 4.3185C146.352 4.9474 146.289 5.10506 145.279 6.84427C144.686 7.86438 144.122 8.89721 144.026 9.13934C143.804 9.70035 143.721 9.69249 143.492 9.08932C143.39 8.81974 142.797 7.72673 142.175 6.66031C141.052 4.735 141.002 4.57563 141.267 3.7895C141.282 3.74705 139.792 3.69774 137.957 3.68001C136.122 3.66229 134.62 3.68602 134.62 3.73276ZM170.61 3.73676C170.61 3.78564 170.762 4.1394 170.947 4.52289C171.281 5.21197 171.285 5.29158 171.285 11.4376V17.6552L170.881 18.477L170.477 19.2989H173.321H176.165L175.879 18.7629C175.35 17.7681 175.238 16.7954 175.287 13.6054L175.334 10.5561L175.84 11.2407C176.118 11.6174 177.805 13.5834 179.589 15.6098L182.832 19.2942L184.835 19.2965C186.686 19.2987 186.829 19.28 186.724 19.0487C185.957 17.3666 185.981 17.6098 185.981 11.509C185.981 5.83587 185.983 5.78399 186.343 4.79117C186.542 4.24088 186.694 3.77263 186.68 3.75048C186.667 3.72847 185.44 3.69631 183.954 3.67901C181.603 3.65171 181.266 3.67544 181.349 3.86211C182.065 5.46267 182.057 5.41236 182.124 8.61463C182.16 10.3244 182.132 11.7197 182.061 11.7151C181.99 11.7107 180.385 9.91275 178.494 7.72002L175.055 3.7329L172.832 3.6903C171.61 3.66686 170.61 3.68773 170.61 3.73676ZM119.025 3.77249C119.025 3.80179 119.155 4.10724 119.315 4.45142C119.834 5.57345 119.956 7.25706 119.888 12.3988C119.822 17.4099 119.733 18.1508 119.084 19.1202L118.868 19.4418H122.237H125.606L125.204 18.6199C124.825 17.8442 124.799 17.6576 124.751 15.2968L124.7 12.7954L125.274 13.6873C126.63 15.794 128.746 18.0677 130.216 18.9953L130.923 19.4418H133.235H135.547L134.821 18.8947C133.267 17.7229 131.23 15.3649 130.564 13.9675C130.18 13.1603 130.199 12.9442 130.674 12.7378C133.788 11.3857 134.112 6.90601 131.246 4.82948C129.836 3.80751 129.244 3.71918 123.808 3.71918C121.177 3.71918 119.025 3.74319 119.025 3.77249ZM37.0201 7.38527C38.4672 8.12938 39.3659 9.72294 39.507 11.7949C39.6369 13.7015 38.9657 15.5805 37.9136 16.256C37.2046 16.7112 35.8577 16.7069 34.8242 16.2461C33.9277 15.8465 32.9052 14.8281 32.4673 13.8989C31.9766 12.8577 31.908 10.3447 32.3368 9.11676C32.7131 8.03861 33.3063 7.30851 34.0132 7.05295C34.8027 6.76737 36.0969 6.91044 37.0201 7.38527ZM55.2358 7.28021C56.0717 7.64198 56.343 8.05276 56.343 8.9571C56.343 10.2519 55.4243 10.8658 53.4864 10.8658H52.894V8.93623V7.00664L53.7562 7.00978C54.2718 7.01164 54.8666 7.12041 55.2358 7.28021ZM127.073 7.28364C127.961 7.6677 128.225 8.11308 128.141 9.08203C128.092 9.64175 127.974 9.9675 127.729 10.2156C127.364 10.5861 126.326 10.8658 125.316 10.8658H124.723V8.93623V7.00664L125.586 7.00978C126.105 7.01164 126.696 7.12056 127.073 7.28364ZM108.824 10.3656C109.218 11.5448 109.587 12.6544 109.644 12.8312L109.748 13.1528H107.806H105.865L106.675 10.6872C107.12 9.33116 107.562 7.96429 107.655 7.64984L107.826 7.0781L107.967 7.64984C108.045 7.96429 108.43 9.18637 108.824 10.3656ZM207.77 14.7309C206.924 15.1568 206.41 15.8934 206.332 16.7918C206.242 17.8247 206.494 18.4546 207.269 19.1357C208 19.7784 208.637 19.9548 209.687 19.8049C210.482 19.6911 211.471 18.9368 211.796 18.1957C212.205 17.2639 211.983 16.0226 211.268 15.2459C210.533 14.448 208.83 14.1972 207.77 14.7309Z" fill="#FFF7DA"/>
</svg>
