<svg width="592" height="29" viewBox="0 0 592 29" fill="none" xmlns="http://www.w3.org/2000/svg">
<path fill-rule="evenodd" clip-rule="evenodd" d="M18.8936 1.57447V3.14894H17.3191H15.7447V4.7234V6.29787H12.5957H9.44681V7.87234V9.44681H7.87234H6.29787V7.87234V6.29787H4.7234H3.14894V4.7234V3.14894H1.57447H0V20.6255V28.1021H296H592V20.6255V3.14894H590.425H588.851V6.29787V9.44681H587.277H585.702V7.87234V6.29787H584.128H582.553V9.44681V12.5957H580.979H579.404V14.1702V15.7447H577.83H576.255V12.5957V9.44681H574.681H573.106V7.87234V6.29787H571.532H569.957V7.87234V9.44681H568.383H566.808V7.87234V6.29787H565.234H563.66V4.7234V3.14894H560.511H557.362V4.7234V6.29787H555.787H554.213V7.87234V9.44681H552.638H551.064V11.0213V12.5957H549.489H547.915V11.0213V9.44681H546.34H544.766V6.29787V3.14894H543.191H541.617V4.7234V6.29787H540.043H538.468V9.44681V12.5957H536.894H535.319V7.87234V3.14894H533.745H532.17V4.7234V6.29787H530.596H529.021V9.44681V12.5957H527.447H525.872V11.0213V9.44681H524.298H522.723V7.87234V6.29787H521.149H519.574V4.7234V3.14894H518H516.426V7.87234V12.5957H514.851H513.277V9.44681V6.29787H511.702H510.128V7.87234V9.44681H508.553H506.979V7.87234V6.29787H505.404H503.83V4.7234V3.14894H502.255H500.681V4.7234V6.29787H499.106H497.532V7.87234V9.44681H494.383H491.234V7.87234V6.29787H489.66H488.085V4.7234V3.14894H484.936H481.787V4.7234V6.29787H480.213H478.638V9.44681V12.5957H477.064H475.489V11.0213V9.44681H472.34H469.191V7.87234V6.29787H467.617H466.043V4.7234V3.14894H459.745H453.447V4.7234V6.29787H451.872H450.298V4.7234V3.14894H448.723H447.149V4.7234V6.29787H445.574H444V4.7234V3.14894H440.851H437.702V4.7234V6.29787H436.128H434.553V4.7234V3.14894H432.979H431.404V6.29787V9.44681H428.255H425.106V7.87234V6.29787H423.532H421.957V4.7234V3.14894H420.383H418.809V6.29787V9.44681H417.234H415.66V6.29787V3.14894H412.511H409.362V6.29787V9.44681H407.787H406.213V6.29787V3.14894H404.638H403.064V1.57447V0H401.489H399.915V3.14894V6.29787H395.191H390.468V3.14894V0H387.319H384.17V3.14894V6.29787H381.021H377.872V4.7234V3.14894H376.298H374.723V4.7234V6.29787H373.149H371.574V4.7234V3.14894H370H368.426V4.7234V6.29787H366.851H365.277V3.14894V0H363.702H362.128V1.57447V3.14894H360.553H358.979V1.57447V0H357.404H355.83V3.14894V6.29787H354.255H352.681V3.14894V0H351.106H349.532V1.57447V3.14894H347.957H346.383V1.57447V0H343.234H340.085V1.57447V3.14894H338.511H336.936V6.29787V9.44681H335.362H333.787V7.87234V6.29787H332.213H330.638V4.7234V3.14894H329.064H327.489V1.57447V0H322.766H318.043V3.14894V6.29787H316.468H314.894V4.7234V3.14894H313.319H311.745V4.7234V6.29787H310.17H308.596V4.7234V3.14894H307.021H305.447V4.7234V6.29787H303.872H302.298V4.7234V3.14894H297.574H292.851V4.7234V6.29787H291.277H289.702V7.87234V9.44681H288.128H286.553V6.29787V3.14894H284.979H283.404V1.57447V0H280.255H277.106V1.57447V3.14894H275.532H273.957V4.7234V6.29787H272.383H270.809V3.14894V0H266.085H261.362V1.57447V3.14894H258.213H255.064V1.57447V0H253.489H251.915V1.57447V3.14894H248.766H245.617V6.29787V9.44681H244.043H242.468V4.7234V0H239.319H236.17V3.14894V6.29787H234.596H233.021V4.7234V3.14894H229.872H226.723V1.57447V0H225.149H223.574V1.57447V3.14894H222H220.426V6.29787V9.44681H218.851H217.277V7.87234V6.29787H215.702H214.128V3.14894V0H210.979H207.83V4.7234V9.44681H206.255H204.681V6.29787V3.14894H199.957H195.234V4.7234V6.29787H193.66H192.085V3.14894V0H190.511H188.936V1.57447V3.14894H187.362H185.787V6.29787V9.44681H184.213H182.638V6.29787V3.14894H179.489H176.34V1.57447V0H173.191H170.043V1.57447V3.14894H166.894H163.745V4.7234V6.29787H162.17H160.596V4.7234V3.14894H159.021H157.447V6.29787V9.44681H155.872H154.298V7.87234V6.29787H152.723H151.149V3.14894V0H148H144.851V1.57447V3.14894H143.277H141.702V6.29787V9.44681H138.553H135.404V7.87234V6.29787H132.255H129.106V3.14894V0H125.957H122.809V1.57447V3.14894H121.234H119.66V4.7234V6.29787H118.085H116.511V3.14894V0H114.936H113.362V1.57447V3.14894H111.787H110.213V1.57447V0H107.064H103.915V1.57447V3.14894H102.34H100.766V1.57447V0H99.1915H97.617V1.57447V3.14894H96.0425H94.4681V6.29787V9.44681H92.8936H91.3191V7.87234V6.29787H89.7447H88.1702V3.14894V0H86.5957H85.0213V3.14894V6.29787H83.4468H81.8723V4.7234V3.14894H80.2979H78.7234V1.57447V0H75.5745H72.4255V1.57447V3.14894H70.8511H69.2766V4.7234V6.29787H66.1277H62.9787V4.7234V3.14894H61.4043H59.8298V4.7234V6.29787H58.2553H56.6808V3.14894V0H53.5319H50.383V1.57447V3.14894H48.8085H47.234V1.57447V0H45.6596H44.0851V1.57447V3.14894H42.5106H40.9362V6.29787V9.44681H39.3617H37.7872V11.0213V12.5957H36.2128H34.6383V9.44681V6.29787H33.0638H31.4894V4.7234V3.14894H29.9149H28.3404V1.57447V0H26.766H25.1915V1.57447V3.14894H26.766H28.3404V6.29787V9.44681H26.766H25.1915V7.87234V6.29787H23.617H22.0426V3.14894V0H20.4681H18.8936V1.57447ZM255.064 4.7234V6.29787H253.489H251.915V4.7234V3.14894H253.489H255.064V4.7234ZM18.8936 7.87234V9.44681H17.3191H15.7447V7.87234V6.29787H17.3191H18.8936V7.87234ZM321.191 7.87234V9.44681H319.617H318.043V7.87234V6.29787H319.617H321.191V7.87234Z" fill="#1C1C1C"/>
</svg>
