<svg width="75" height="75" viewBox="0 0 75 75" fill="none" xmlns="http://www.w3.org/2000/svg">
<path d="M15.5565 24.7266C18.0175 22.2656 20.5077 19.8047 22.9687 17.3144C23.4081 16.875 23.8769 16.4648 24.4335 16.1719C25.869 15.4687 27.4804 15.8496 28.5058 17.168C29.3847 18.3105 29.2968 20.0684 28.3007 21.2402C27.539 22.1191 27.539 22.1191 28.5937 22.6758C29.2675 23.0273 29.9413 23.3789 30.5858 23.7598C30.9667 23.9648 31.289 23.9355 31.6112 23.6133C34.0429 21.1523 36.5038 18.6914 38.9647 16.2598C39.287 15.9375 39.3749 15.5273 39.4335 15.0879C39.6386 13.5937 40.2538 12.2754 41.2792 11.1914C42.0116 10.4297 42.7147 10.4297 43.4472 11.1621C44.7655 12.4805 46.1132 13.7988 47.4022 15.1465C47.8417 15.6152 48.1933 15.6152 48.6034 15.1465C48.8964 14.7949 49.2187 14.4727 49.5702 14.1797C50.1562 13.6816 50.5077 13.2129 49.8339 12.4512C49.453 12.0117 49.5995 11.3965 50.0097 10.957C50.4491 10.5176 51.0644 10.3418 51.5624 10.7519C52.2948 11.3965 52.7636 11.0742 53.2323 10.4883C53.3788 10.3125 53.5546 10.1367 53.7597 9.96093C54.1405 9.60937 54.1698 9.3164 53.789 8.93554C53.3202 8.49609 52.8808 8.05664 52.4706 7.61718C51.914 7.00195 51.8847 6.21093 52.3827 5.71289C52.8808 5.24414 53.6132 5.27343 54.2284 5.80078C54.6972 6.21093 55.1366 6.65039 55.5468 7.11914C55.8983 7.4707 56.1913 7.55859 56.5722 7.14843C57.4804 6.21093 58.3886 5.30273 59.3261 4.39453C59.6776 4.04296 59.7069 3.57421 59.8534 3.13476C60.6151 0.791012 63.1054 -0.41016 65.4198 0.439449C67.705 1.28906 68.8183 3.89648 67.8515 6.12304C67.2948 7.38281 66.3573 8.26171 65.0097 8.58398C64.4237 8.73046 63.9843 8.99414 63.5741 9.43359C62.8124 10.2246 62.0507 10.9863 61.289 11.748C60.8788 12.1289 60.8788 12.4512 61.289 12.832C61.6991 13.2129 62.1093 13.623 62.4901 14.0332C63.1347 14.707 63.1933 15.4394 62.6659 15.9961C62.1386 16.5234 61.4062 16.4941 60.7323 15.8496C60.2929 15.4101 59.8534 14.9707 59.414 14.5312C59.2089 14.3262 58.9452 14.1797 58.7108 14.4141C58.2421 14.8242 57.8026 15.2637 57.3925 15.7324C57.1581 15.9961 57.3339 16.2305 57.5097 16.4648C57.9784 17.0801 58.1542 17.7539 57.539 18.3691C57.0409 18.8965 56.455 18.8672 55.6347 18.2812C55.2538 17.9883 55.0194 18.0762 54.7265 18.3691C54.287 18.8379 53.8183 19.3066 53.3495 19.7461C52.8515 20.1855 52.8515 20.5371 53.3495 21.0059C54.6386 22.2363 55.8983 23.5254 57.1581 24.7852C58.1542 25.8105 58.1249 26.3965 57.0409 27.334C55.9569 28.3008 54.6386 28.7988 53.2323 28.9746C52.705 29.0332 52.3241 29.2383 51.9726 29.6191C50.7128 30.9082 49.453 32.168 48.1933 33.4277C47.8417 33.7793 47.7245 34.0723 47.9296 34.5703C48.9257 36.8848 48.3104 38.9062 46.6405 40.6933C46.5819 40.7519 46.5233 40.8105 46.4647 40.8691C45.0878 42.2754 45.1171 42.4219 46.9628 43.1836C47.578 43.4473 48.2519 43.5937 48.8964 43.7988C49.746 44.0332 50.2147 44.707 50.0683 45.3808C49.8925 46.084 49.1894 46.4648 48.3397 46.2891C46.8163 45.9668 45.3808 45.4101 44.121 44.4726C43.5351 44.0625 43.1249 44.0918 42.6854 44.6191C42.2753 45.0879 41.8358 45.5273 41.3671 45.9375C40.8397 46.3769 40.869 46.7871 41.2206 47.3437C44.2382 52.3242 47.2265 57.334 50.2147 62.3144C51.6796 64.7461 51.621 66.8848 50.0097 68.9648C49.5995 69.4922 49.0722 69.873 48.5155 70.1953C46.3476 71.5137 44.1503 72.832 41.9823 74.1211C39.3456 75.6738 36.2401 75 34.6581 72.4219C31.6991 67.5879 28.828 62.7246 25.9276 57.8613C25.8397 57.6855 25.6933 57.5391 25.6347 57.3633C25.3417 56.6601 24.9315 56.3379 24.1405 56.748C23.9355 56.8652 23.6425 56.8945 23.4374 56.8359C22.4413 56.5723 21.7382 57.0117 21.0351 57.5976C20.244 58.2715 19.3065 58.4766 18.2812 58.1836C17.9003 58.0957 17.6073 58.1543 17.2558 58.3008C14.9706 59.2969 12.7147 58.9453 11.1034 57.3047C9.52139 55.7226 9.16983 53.4375 10.1659 51.2109C10.3124 50.8887 10.4003 50.5664 10.2831 50.2148C9.96084 48.9551 10.3124 47.8418 11.1913 46.9043C11.5722 46.4941 11.748 46.1133 11.6308 45.5273C11.455 44.4141 11.8065 43.4473 12.6269 42.6562C13.2714 42.0117 13.8866 41.3965 14.5312 40.7519C15.3222 39.9609 15.3222 39.9609 14.5019 39.1699C14.0917 38.7598 13.623 38.3496 13.2421 37.9101C12.7733 37.3828 12.4218 37.2656 11.748 37.7051C10.4003 38.6133 8.70108 38.3789 7.67569 37.2656C6.56241 36.0644 6.47452 34.4238 7.47061 33.0176C7.70498 32.6953 7.96866 32.373 8.26162 32.1094C10.6054 29.6777 13.0956 27.2168 15.5565 24.7266ZM36.328 41.4551C40.4589 37.3242 44.5604 33.2226 48.6913 29.0918C49.1894 28.5937 49.1308 28.4473 48.5741 27.9785C45.5565 25.5762 42.9198 22.793 40.4003 19.8926C40.371 19.8633 40.371 19.834 40.371 19.834C40.078 19.0723 39.7558 19.1602 39.2284 19.6875C31.0546 27.8906 22.8808 36.0644 14.7069 44.2383C13.8573 45.0879 13.8573 45.293 14.7069 46.1426C17.1679 48.6035 19.6581 51.0937 22.119 53.5547C23.0858 54.5215 23.2616 54.5508 24.2284 53.584C28.2421 49.541 32.2851 45.498 36.328 41.4551ZM31.6698 49.834C30.2636 51.2402 28.8866 52.6465 27.4804 54.0234C27.0116 54.4922 26.9237 54.8437 27.3046 55.4297C28.037 56.5723 28.7401 57.7441 29.414 58.8867C31.8456 62.9883 34.2772 67.0898 36.7382 71.1621C37.4999 72.3926 38.9062 72.7441 40.2245 72.0996C40.7519 71.8359 41.2499 71.5137 41.7772 71.1914C42.7147 70.6348 42.7147 70.6348 42.1581 69.6973C40.4003 66.7383 38.6425 63.7793 36.914 60.8203C35.5077 58.418 35.3319 55.8984 36.2987 53.3203C36.7968 52.0019 37.5878 50.8887 38.4081 49.7754C38.8769 49.1308 38.9355 48.6035 38.4667 47.959C37.9687 47.2558 37.5292 46.4941 37.119 45.7324C36.7675 45.1172 36.4452 45.0586 35.9472 45.5859C34.5116 47.0215 33.1054 48.4277 31.6698 49.834ZM47.6659 67.5879C48.662 66.5918 48.8085 65.332 48.1347 64.1894C46.5233 61.4062 44.8534 58.6523 43.2128 55.8691C42.4511 54.5801 41.6894 53.3203 40.8983 52.0605C40.7226 51.7676 40.5175 51.3281 40.1366 51.8262C38.4667 53.9355 37.4413 56.2793 38.9062 59.0332C40.664 62.3437 42.6854 65.5371 44.5897 68.7598C44.7655 69.0527 44.9706 69.2285 45.3222 69.0234C46.1425 68.5547 47.0214 68.1152 47.6659 67.5879ZM23.1151 32.1094C24.9608 30.2637 26.8358 28.3887 28.6815 26.543C29.0917 26.1328 29.121 25.8691 28.5644 25.5762C27.744 25.166 26.9237 24.7266 26.1327 24.2578C25.7519 24.0527 25.4589 24.082 25.1366 24.4043C21.6503 27.9199 18.1347 31.4355 14.619 34.9219C14.2675 35.2734 14.2968 35.5371 14.619 35.8887C15.1757 36.4453 15.7616 36.9726 16.289 37.5586C16.787 38.1152 17.1386 38.1152 17.6659 37.5586C19.453 35.7422 21.2987 33.9258 23.1151 32.1094ZM48.6034 19.834C46.8163 18.0469 44.9999 16.2305 43.2128 14.4434C42.5976 13.8281 42.4511 13.8574 42.1581 14.707C41.6894 16.1426 41.8065 17.5488 42.7733 18.7207C44.8827 21.2402 47.1679 23.5547 49.7167 25.6348C50.8886 26.6016 52.2948 26.6602 53.7304 26.25C54.6093 25.9863 54.6386 25.8691 53.994 25.2246C52.1776 23.4375 50.3905 21.6504 48.6034 19.834ZM17.4901 26.5137C14.9999 29.0039 12.5097 31.4941 10.0194 33.9844C9.81436 34.1894 9.60928 34.3945 9.4335 34.6582C9.25772 34.9219 9.22842 35.2148 9.4628 35.4785C9.66787 35.7422 9.96084 35.7422 10.2538 35.5957C10.4296 35.5078 10.6347 35.3613 10.7812 35.2148C15.8495 30.1465 20.9179 25.1074 25.9569 20.0391C26.3378 19.6582 26.8358 19.1602 26.3085 18.6621C25.7519 18.1055 25.3417 18.6914 24.9608 19.0723C22.4706 21.5332 19.9804 24.0234 17.4901 26.5137ZM42.3925 41.1035C43.2128 40.2832 44.0331 39.4629 44.8534 38.6426C45.3222 38.1738 45.6151 37.5879 45.6737 36.9141C45.703 36.6504 45.7909 36.2988 45.5272 36.1816C45.2636 36.0644 45.1171 36.3867 44.9706 36.5625C43.0077 38.4961 41.0741 40.459 39.1112 42.4219C39.0233 42.5098 38.9355 42.6269 38.8183 42.7148C38.3495 43.2129 38.7304 43.5937 39.0233 43.916C39.3456 44.3262 39.6093 43.916 39.8144 43.7109C40.6933 42.832 41.5429 41.9531 42.3925 41.1035ZM16.6112 51.7383C15.6737 50.8008 14.7362 49.8633 13.7987 48.9258C13.33 48.4863 12.8905 48.6035 12.7147 49.1894C12.5976 49.5996 12.7733 49.9219 13.0663 50.1855C13.7401 50.8594 14.414 51.5332 15.0585 52.1777C16.1425 53.2324 17.1972 54.3164 18.2812 55.3711C18.6913 55.7812 19.1308 55.8398 19.5702 55.4004C20.0097 54.9609 19.5995 54.668 19.3358 54.4043C18.3983 53.5254 17.5194 52.6172 16.6112 51.7383ZM65.1269 3.28125C64.5409 2.63671 63.4569 2.63671 62.7831 3.25195C62.08 3.92578 62.0214 4.98046 62.6659 5.65429C63.2811 6.29882 64.453 6.29882 65.0976 5.68359C65.7714 5.06835 65.7714 3.98437 65.1269 3.28125ZM13.8866 54.6094C13.4765 54.1992 13.037 53.7598 12.6269 53.3496C12.5097 53.2324 12.3925 53.0859 12.2167 53.1738C12.0409 53.2617 12.0702 53.4375 12.0702 53.6133C11.9237 55.1074 13.3886 56.543 14.8534 56.3965C14.9999 56.3672 15.205 56.3965 15.2929 56.2207C15.3808 56.0449 15.205 55.9277 15.0878 55.8105C14.6776 55.4004 14.2968 55.0195 13.8866 54.6094ZM52.0897 17.3437C52.3534 17.0801 52.6171 16.7871 52.8808 16.5527C53.2616 16.2012 53.203 15.9375 52.8515 15.6152C52.5292 15.293 52.2362 15.2051 51.8847 15.5566C51.3866 16.0547 50.8886 16.5527 50.3905 17.0508C50.0097 17.4316 49.9511 17.7246 50.3612 18.1348C50.7714 18.5449 51.0644 18.4277 51.3866 18.0762C51.621 17.7832 51.8554 17.5781 52.0897 17.3437ZM59.2089 8.26171C58.9452 8.52539 58.6815 8.78906 58.4179 9.05273C58.0663 9.40429 58.1249 9.69726 58.4472 10.0195C58.7694 10.3418 59.0624 10.4004 59.414 10.0488C59.912 9.55078 60.3808 9.05273 60.9081 8.55468C61.2597 8.23242 61.3769 7.93945 60.996 7.52929C60.5858 7.11914 60.2636 7.14843 59.912 7.55859C59.6483 7.79296 59.414 8.02734 59.2089 8.26171ZM56.1327 13.3008C56.2792 13.1543 56.455 13.0078 56.6015 12.832C57.0702 12.334 57.0409 11.8359 56.4257 11.6309C55.4882 11.3086 55.3124 12.334 54.7558 12.7148C54.4335 12.9199 54.3163 13.2422 54.6093 13.5937C55.1073 14.1797 55.2831 14.1504 56.1327 13.3008Z" fill="#9B9B9B"/>
<path d="M29.5604 35.9766C28.3007 34.6875 28.33 32.6367 29.5897 31.377C30.9081 30.0879 32.9882 30.0879 34.2479 31.4062C35.4784 32.6953 35.4491 34.7168 34.16 36.0352C32.9003 37.2949 30.8202 37.2656 29.5604 35.9766Z" fill="#9B9B9B"/>
<path d="M35.7127 29.7363C34.4529 28.4473 34.5115 26.3965 35.8006 25.1367C37.0897 23.8769 39.1697 23.9355 40.4002 25.2246C41.6307 26.5137 41.6014 28.5937 40.3123 29.8535C39.0233 31.084 36.9725 31.0547 35.7127 29.7363Z" fill="#9B9B9B"/>
<path d="M28.0663 47.8125C27.5976 48.2813 27.1874 48.7793 26.6894 49.1895C26.0741 49.6875 25.3124 49.6582 24.8437 49.1602C24.3456 48.6328 24.3749 47.9004 24.9608 47.2852C25.8104 46.4063 26.6601 45.5566 27.539 44.707C28.1542 44.1211 28.8866 44.0918 29.414 44.5606C29.9413 45.0293 29.9999 45.7031 29.4433 46.377C29.0624 46.875 28.5351 47.3145 28.0663 47.8125Z" fill="#9B9B9B"/>
</svg>
