<svg width="75" height="75" viewBox="0 0 75 75" fill="none" xmlns="http://www.w3.org/2000/svg">
<g clip-path="url(#clip0_39_957)">
<path d="M60.0878 50.6543C58.9159 50.6836 57.9784 50.1562 57.1581 49.3652C53.8768 46.084 50.5956 42.8027 47.3436 39.5215C46.6991 38.8769 46.6991 38.877 46.1132 39.6094C45.7323 40.0488 45.3514 40.4883 44.8827 40.8691C44.3553 41.3086 44.3846 41.6016 44.8827 42.0703C48.1346 45.293 51.3866 48.5449 54.6386 51.7969C55.869 53.0273 56.2792 54.4629 55.6932 56.0742C54.7264 58.7402 51.4745 59.4141 49.3944 57.3926C47.285 55.3418 45.205 53.2324 43.1249 51.1523C41.8944 49.9219 40.6639 48.7207 39.4628 47.4609C38.994 46.9922 38.7303 47.0215 38.2909 47.4902C35.537 50.2734 32.7245 52.9687 30.0292 55.8105C28.7401 57.1582 27.2753 58.0664 25.4296 58.2422C24.1991 58.3594 23.3202 59.0039 22.412 59.8242C20.9179 61.1719 19.9218 62.7539 19.3651 64.6875C18.9843 66.0059 18.4276 67.2949 17.9296 68.6133C17.7831 68.9941 17.7538 69.3164 17.9296 69.7266C18.6327 71.4258 18.1346 73.2129 16.6991 74.2969C15.2636 75.3516 13.33 75.3223 11.9823 74.0918C10.6639 72.9199 9.46277 71.6309 8.2323 70.4004C5.91785 68.0859 3.6034 65.7715 1.28894 63.4863C0.11707 62.3145 -0.205196 60.9082 0.322148 59.3848C0.820195 57.8906 1.99207 57.0996 3.5448 56.8652C4.13074 56.7773 4.71668 56.8945 5.27332 57.1289C5.74207 57.334 6.12293 57.3047 6.59168 57.1289C8.58387 56.3672 10.5761 55.6348 12.5682 54.9316C13.0663 54.7559 13.5057 54.5215 13.8573 54.1113C14.0624 53.877 14.2968 53.6426 14.5311 53.4375C16.0839 52.207 16.9628 50.6543 17.1386 48.6621C17.2557 47.5195 17.871 46.582 18.6913 45.7617C21.9725 42.4805 25.2538 39.1992 28.535 35.9473C28.9745 35.5078 29.0331 35.2734 28.5643 34.8047C26.6307 32.9004 26.7186 30.8203 28.5643 28.8281C30.4686 26.748 32.4901 26.9531 33.8964 27.6855C34.453 28.0078 34.7753 28.7402 35.3612 28.8281C35.9471 28.916 36.4159 28.2422 37.0604 28.125C37.7343 28.0078 38.4374 27.9199 39.0819 28.1543C39.5214 28.3008 39.785 28.1836 40.1073 27.8613C42.8026 25.1367 45.5272 22.4414 48.2225 19.7461C48.5448 19.4238 48.6913 19.1309 48.662 18.6621C48.6327 17.1973 49.3944 16.2012 50.8593 15.9082C51.621 15.7617 51.9139 15.4102 52.0018 14.6777C52.2069 13.0957 52.4999 11.543 52.7636 9.99023C53.2909 6.94336 55.3417 4.86328 58.3886 4.33594C60.1171 4.01367 61.8456 3.7207 63.5741 3.45703C64.2772 3.33984 64.8632 3.10547 65.3612 2.54883C65.83 2.02148 66.3573 1.55273 66.8553 1.05469C67.9979 -0.0585956 69.5507 -0.117189 70.7225 0.996092C71.8358 2.08008 72.9491 3.19336 74.0331 4.30664C75.1757 5.50781 75.2343 7.20703 73.9745 8.26172C72.3046 9.63867 71.455 11.3086 71.3378 13.4766C71.2792 14.5312 71.0155 15.5859 70.8104 16.6406C70.2245 19.6875 68.1444 21.7969 65.0975 22.3535C63.4276 22.6758 61.7284 22.9395 60.0585 23.2031C59.5897 23.291 59.3554 23.4668 59.2675 23.9648C58.8866 25.7227 58.0663 26.4258 56.3085 26.4551C55.7225 26.4551 55.4296 26.8359 55.1073 27.1875C54.8729 27.4512 55.1366 27.627 55.3124 27.8027C55.9862 28.5059 56.6893 29.1797 57.3925 29.8828C59.0038 31.5234 59.0038 33.8086 57.3925 35.4492C57.0116 35.8301 56.66 36.2402 56.2499 36.5918C55.8104 36.9434 55.869 37.207 56.2499 37.5879C58.4179 39.7266 60.5565 41.8945 62.7245 44.0332C63.2225 44.5312 63.6034 45.0879 63.8085 45.7617C64.5409 48.2227 62.7245 50.6543 60.0878 50.6543ZM37.9393 30.6152C37.5292 30.6445 37.2362 30.9375 36.9432 31.2305C31.5233 36.6504 26.0741 42.0996 20.6542 47.5195C20.1268 48.0469 19.746 48.6035 19.6581 49.3359C19.453 51.7383 18.369 53.7012 16.4647 55.1953C16.3768 55.2539 16.3182 55.3418 16.2596 55.4004C15.9374 55.6641 15.9667 55.8984 16.2596 56.1914C16.7284 56.6309 17.1386 57.0996 17.6073 57.5391C18.1346 58.0371 18.5448 58.916 19.2186 58.9453C19.8925 58.9746 20.3319 58.0957 20.83 57.5684C21.8261 56.4844 23.0272 55.8105 24.4921 55.6055C24.9608 55.5469 25.4589 55.4004 25.9276 55.3125C26.5136 55.1953 27.0116 54.9023 27.4511 54.4922C32.9296 49.0137 38.3788 43.5645 43.8573 38.0859C44.619 37.3242 44.6483 36.8262 43.9159 36.0645C42.246 34.3652 40.5468 32.6953 38.8475 30.9961C38.6132 30.7617 38.3495 30.6152 37.9393 30.6152ZM56.3671 23.5254C56.6014 23.4961 56.6307 23.3203 56.66 23.2031C56.7479 22.8223 56.8358 22.4414 56.8944 22.0605C57.0409 21.2695 57.5096 20.8301 58.3007 20.7129C59.5604 20.5371 60.8202 20.332 62.0507 20.0977C63.369 19.834 64.7167 19.8047 65.9471 19.2187C66.4452 18.9844 66.5624 18.75 66.0936 18.3105C64.8925 17.1387 63.7206 15.9375 62.5194 14.7363C60.6151 12.832 58.6815 10.8984 56.7772 8.99414C56.1913 8.4082 56.162 8.4375 55.7811 9.16992C55.5468 9.63867 55.4003 10.1074 55.3124 10.6348C55.0194 12.3047 54.6386 13.9746 54.4921 15.6738C54.3456 17.3437 53.7011 18.3105 51.9432 18.3691C51.4745 18.3984 51.2987 18.5449 51.7089 18.9551C53.1444 20.3906 54.58 21.8262 56.0155 23.2324C56.162 23.3789 56.2792 23.4668 56.3671 23.5254ZM53.5546 24.6973C53.5253 24.6387 53.4667 24.5508 53.4081 24.4922C52.4706 23.5547 51.5624 22.6172 50.6249 21.709C50.3612 21.4453 50.1561 21.5918 49.9218 21.7969C47.3143 24.4336 44.6776 27.041 42.0702 29.6484C41.8065 29.9121 41.7772 30.1172 42.0409 30.3809C42.9198 31.2598 43.7987 32.1387 44.6776 33.0176C44.9706 33.3398 45.205 33.252 45.4686 32.959C48.0761 30.3516 50.6835 27.7441 53.2616 25.1367C53.3788 25.0195 53.5253 24.9316 53.5546 24.6973ZM69.0526 10.6348C69.1112 10.2539 68.9354 9.99023 68.6718 9.72656C67.5292 8.58398 66.3866 7.4707 65.2733 6.29883C64.9511 5.97656 64.6288 5.88867 64.2186 5.97656C62.6366 6.24023 61.0546 6.5332 59.4725 6.79687C59.2675 6.82617 58.9745 6.73828 58.8866 6.97265C58.7694 7.26562 59.0917 7.38281 59.2382 7.5293C61.9628 10.2832 64.7167 13.0078 67.4413 15.7617C67.5292 15.8496 67.6171 15.9375 67.705 16.0254C67.9393 16.2305 68.1151 16.2012 68.1444 15.8789C68.4374 14.1504 68.7303 12.3926 69.0526 10.6348ZM13.4471 57.4805C13.3593 57.5098 13.2421 57.5391 13.1249 57.5684C11.6307 58.125 10.1659 58.6523 8.67176 59.209C8.2323 59.3555 8.20301 59.5312 8.52527 59.8535C10.7811 62.0801 13.0077 64.3359 15.2343 66.5918C15.4979 66.8555 15.6737 66.9434 15.8202 66.5039C16.3475 64.9805 16.9042 63.4863 17.4901 61.9629C17.6366 61.582 17.578 61.3184 17.285 61.0547C16.1718 59.9707 15.0878 58.8574 13.9745 57.7441C13.8573 57.5684 13.7108 57.4219 13.4471 57.4805ZM61.1132 46.7285C61.1132 46.2305 60.7909 45.9375 60.4979 45.6152C56.8944 41.9824 53.2909 38.3496 49.6581 34.7168C48.6034 33.6328 48.6034 33.6621 47.5487 34.6875C47.0507 35.1562 47.08 35.4199 47.5487 35.8887C51.328 39.6094 55.0487 43.3594 58.7987 47.1094C59.0038 47.3145 59.2089 47.5195 59.4725 47.666C60.205 48.0762 61.1132 47.5488 61.1132 46.7285ZM15.5565 70.9863C15.5565 70.6641 15.2343 70.3711 14.9413 70.0488C11.66 66.7676 8.34949 63.4863 5.06824 60.1758C4.89246 60 4.71668 59.8242 4.5116 59.707C4.01355 59.4434 3.51551 59.4141 3.10535 59.8242C2.6659 60.2637 2.69519 60.791 3.01746 61.2891C3.13465 61.4648 3.31043 61.6113 3.45691 61.7871C6.70887 65.0391 9.96082 68.3203 13.2128 71.5723C13.3886 71.748 13.5643 71.9238 13.7401 72.0703C14.121 72.334 14.5604 72.3633 14.9999 72.1289C15.3807 71.9531 15.5565 71.6016 15.5565 70.9863ZM53.203 54.5801C53.2323 54.1406 52.8807 53.8477 52.5878 53.5254C49.5409 50.4785 46.494 47.4023 43.4178 44.3555C42.2753 43.2422 42.5975 43.1836 41.3671 44.3555C40.8397 44.8535 40.9276 45.1172 41.3964 45.5566C44.5897 48.7207 47.7538 51.8848 50.9179 55.0781C51.0936 55.2539 51.2694 55.4297 51.4745 55.5469C52.2655 55.9863 53.203 55.4883 53.203 54.5801ZM55.8397 32.6074C55.8397 32.3437 55.7518 32.1094 55.5761 31.9336C54.8143 31.1426 54.0526 30.3809 53.2616 29.5898C52.9686 29.2969 52.7343 29.4727 52.5292 29.6777C51.9725 30.2344 51.4452 30.791 50.8593 31.3184C50.537 31.6406 50.5663 31.8457 50.8593 32.168C51.4159 32.6953 51.9432 33.2227 52.4706 33.75C53.8475 35.127 53.8475 35.127 55.2245 33.7207C55.5468 33.4277 55.8104 33.1055 55.8397 32.6074ZM72.0409 6.26953C71.9823 6.03515 71.8358 5.91797 71.7186 5.77148C71.1034 5.15625 70.5175 4.57031 69.9022 3.95508C68.7596 2.8125 68.7889 2.84179 67.6757 4.01367C67.3241 4.39453 67.3534 4.6289 67.705 4.98047C68.4667 5.71289 69.1698 6.47461 69.9315 7.17773C70.1366 7.38281 70.3417 7.88086 70.7225 7.61719C71.2499 7.23633 71.7186 6.79687 72.0409 6.26953ZM29.8534 31.7871C29.8534 32.3145 30.2343 32.6074 30.5272 32.959C30.8495 33.3105 31.1132 33.3105 31.4354 32.959C31.9628 32.4023 32.5194 31.8457 33.0761 31.2891C33.2811 31.084 33.4276 30.9375 33.1932 30.6152C32.6659 29.9414 32.0214 29.6777 31.4354 29.8828C30.8495 30.0879 29.8534 31.2891 29.8534 31.7871Z" fill="#969696"/>
</g>
<defs>
<clipPath id="clip0_39_957">
<rect width="75" height="75" fill="white"/>
</clipPath>
</defs>
</svg>
