<svg width="75" height="75" viewBox="0 0 75 75" fill="none" xmlns="http://www.w3.org/2000/svg">
<path d="M12.2753 75C9.81433 71.748 7.06042 68.8184 3.48621 66.7676C2.43152 66.1523 2.69519 65.3027 3.45691 64.5703C5.09753 62.9297 6.73816 61.2598 8.40808 59.6191C11.3671 56.6016 14.3553 53.6426 17.285 50.625C17.7538 50.127 17.9296 49.3066 18.2225 48.6621C18.6913 47.6953 19.0428 46.6113 19.6874 45.7617C20.6249 44.5898 21.826 43.6523 22.7928 42.5391C23.1151 42.1582 23.1151 41.5137 23.2909 41.0156C23.0858 40.8984 22.8514 40.7812 22.6464 40.6934C21.4745 42.0996 20.3026 43.4766 19.1893 44.9121C18.6327 45.6445 18.0468 46.0547 17.285 45.3516C16.1718 44.3262 15.1171 43.3008 14.0917 42.1875C13.3885 41.3965 13.5643 40.7227 14.5311 40.1953C15.0878 39.9023 15.6444 39.5215 16.1132 39.0527C19.6288 35.5664 23.1151 32.0801 26.6014 28.5645C26.8651 28.3008 27.1874 28.0371 27.3925 27.7148C28.5936 25.8398 28.7987 25.8105 30.3514 27.3633C31.0546 28.0664 31.787 28.7695 32.4608 29.502C33.3104 30.4102 33.4276 31.2012 32.08 31.7871C31.5526 32.0215 31.1132 32.4609 30.6151 32.8125C31.4647 34.1602 32.0507 33.3691 32.6659 32.7539C37.8514 27.5684 43.0956 22.4414 48.1639 17.168C49.5995 15.6738 51.0057 14.9707 52.9393 15.7617C53.994 16.2012 54.6678 15.8203 55.4003 15.0586C57.5975 12.7734 59.8534 10.5762 62.1678 8.29102C61.6991 7.35352 59.9413 6.5918 61.3182 5.47852C61.7577 5.09766 63.076 5.77148 63.8378 5.91797C65.9178 4.04297 68.0858 2.02148 70.2538 0C70.6932 0 71.1327 0 71.6014 0C72.3339 1.05469 72.0116 1.8457 71.1327 2.72461C64.746 9.05273 58.3885 15.4102 52.0311 21.7969C51.4159 22.4121 50.7421 22.8516 51.035 24.0234C51.1522 24.4922 50.4491 25.2539 49.9803 25.7812C46.5233 29.7656 43.037 33.6914 39.1698 38.0859C39.9608 38.6719 40.7225 39.2285 41.455 39.8145C42.4217 40.6055 42.4803 41.3965 41.5428 42.3047C40.1366 43.6523 38.7596 45.0293 37.412 46.4062C36.5038 47.3438 35.7128 47.3145 34.8925 46.377C34.3065 45.7031 33.7206 45.0586 33.1346 44.3848C32.9296 44.4141 32.6952 44.4434 32.4901 44.4727C32.4022 45.0879 32.0507 45.8203 32.285 46.2598C33.5741 48.75 32.9882 50.6836 30.7323 52.207C29.5897 52.998 29.3846 53.9648 30.1757 55.166C30.5272 55.7227 30.7323 56.3672 30.9667 56.9824C31.494 58.2715 31.1718 59.4727 30.1171 60.2637C28.7401 61.2891 27.2753 62.1973 25.7518 62.959C25.3417 63.1641 24.4921 62.7246 24.0233 62.373C23.6425 62.0801 23.5253 61.4355 23.1737 60.7031C19.8046 65.5664 16.5526 70.2832 13.2714 74.9707C12.9198 75 12.5975 75 12.2753 75ZM12.8319 71.5137C15.6737 67.3828 18.5155 63.2227 21.3573 59.0625C21.621 58.6816 21.9139 58.0957 21.7675 57.7734C21.0057 55.9277 20.0975 54.1406 19.2772 52.4121C14.7948 56.9238 10.4589 61.2598 6.24011 65.4785C8.32019 67.3828 10.5175 69.4043 12.8319 71.5137ZM37.9393 35.5078C37.2948 34.8047 36.5624 33.9844 35.7714 33.1055C35.3026 33.5449 34.8925 33.9258 34.5116 34.3066C30.4686 38.3496 26.455 42.3633 22.412 46.4062C20.0975 48.7207 20.0682 49.0137 21.7089 51.7383C27.1288 46.3184 32.5487 40.8984 37.9393 35.5078ZM39.9608 33.75C42.7733 30.498 45.5272 27.2754 48.1346 24.2578C47.5487 23.4375 47.08 22.8223 46.787 22.4414C43.6522 25.5762 40.6639 28.5352 37.5878 31.6113C38.2909 32.1973 39.0526 32.9004 39.9608 33.75ZM25.6346 60.3223C26.6014 59.7363 27.451 59.2969 28.1835 58.7402C28.4764 58.5059 28.7401 57.8906 28.6229 57.5977C27.8026 55.5762 26.8651 53.584 25.869 51.2695C24.9022 52.2656 24.0819 53.0566 23.3788 53.9355C23.1737 54.1992 23.1151 54.7559 23.2616 55.0781C23.9647 56.7773 24.7557 58.4766 25.6346 60.3223ZM24.0526 35.1855C23.8475 35.127 23.6425 35.0977 23.4374 35.0391C21.4452 37.0312 19.453 38.9941 17.5194 41.0449C17.285 41.2793 17.3729 41.8359 17.3436 42.2461C17.5194 42.3047 17.6952 42.334 17.9003 42.3926C19.8632 40.4004 21.8553 38.4082 23.8182 36.3574C24.0233 36.123 23.994 35.5957 24.0526 35.1855ZM38.1151 39.668C36.8553 40.752 35.7421 41.7188 34.6581 42.6562C35.1854 43.2715 35.6249 43.7402 35.9764 44.1504C37.0897 42.9785 38.1151 41.9238 39.1405 40.8691C38.7889 40.4883 38.3495 39.9902 38.1151 39.668ZM29.9999 35.3027C27.3632 34.834 26.8358 37.207 25.4589 38.1738C25.1073 38.4082 25.1366 39.2285 25.0194 39.7852C25.1366 39.8145 25.2538 39.8145 25.371 39.8438C26.8358 38.4082 28.2714 36.9727 29.9999 35.3027ZM25.1073 33.6035C25.8104 33.6035 26.3671 33.7793 26.6014 33.5742C27.8026 32.6074 28.9159 31.5234 30.0585 30.4688C28.828 29.4434 28.535 29.6484 25.1073 33.6035ZM28.5643 51.1816C29.2382 49.8926 31.3768 49.3945 29.8241 47.2852C29.2089 48.5742 26.8944 48.9258 28.5643 51.1816ZM52.2362 18.1934C51.1815 17.8418 49.16 18.9844 48.5741 20.332C48.4862 20.5664 48.8085 21.0059 48.9842 21.3867C50.1854 20.1855 51.1815 19.1895 52.2362 18.1934Z" fill="#FF7D24"/>
</svg>
